<?xml version="1.0" encoding="utf-8"?>
<!-- Generator: Adobe Illustrator 26.0.2, SVG Export Plug-In . SVG Version: 6.00 Build 0)  -->
<svg version="1.1" id="katman_1" xmlns="http://www.w3.org/2000/svg" xmlns:xlink="http://www.w3.org/1999/xlink" x="0px" y="0px"
	 viewBox="0 0 3581.6 1231.7" style="enable-background:new 0 0 3581.6 1231.7;" xml:space="preserve">
<style type="text/css">
	.st0{fill:#6762A6;}
	.st1{fill:#FFFFFF;}
</style>
<path class="st0" d="M888.1,1064.9h-594c-50.8,0-92-41.2-92-92V192.5c0-50.8,41.2-92,92-92h594c50.8,0,92,41.2,92,92v780.3
	C980.1,1023.6,938.9,1064.8,888.1,1064.9L888.1,1064.9z"/>
<path class="st1" d="M689.6,932.3v-383c0,0,24.7-91.6-306.8,37.5c-0.6,1.9-0.6-354.1-0.6-354.1l108.3-0.8V460
	c0,0,303.6-119.7,303.6,90.7v381.7H689.6V932.3z M751.4,369.6h-115c41.4-50.6,78.9-137.2,78.9-137.2h118.8
	C834.1,232.4,813.8,288.9,751.4,369.6L751.4,369.6z M384,931.5v-218l109.1,109.1L384,931.7V931.5z"/>
<path class="st0" d="M1408.9,904.3V590.7c0-22-16.2-31.7-35.4-31.7c-44.7,0.9-88.8,10.6-129.6,28.7v316.7h-88.4V321.9h88.4v192
	c41.8-15.2,92-28.5,142.2-28.5c80.2,0,110.2,49.4,110.2,117.1v302.2L1408.9,904.3z M1661.7,714.2c2.8,105.3,23.6,126,88.4,126
	c50.8,0,108.3-17.1,152.4-33.8l14.6,66.6c-47.1,21.3-104.5,41.8-171.1,41.8c-147.3,0-170.1-81-170.1-209.9c0-70.7,5.1-135,22-193.9
	c44.1-17.1,103.2-25.9,177.5-25.9c120.9,0,157.8,67.1,157.8,184.4v44.9h-271.6L1661.7,714.2z M1773.8,558.8
	c-26.6,0-68.4,0.8-103,7.6c-3.8,17.7-8.2,41.8-9.5,86.9h184.4c0-61.2-11-94.3-71.5-94.3L1773.8,558.8z M2097,587.3v317h-88.4V548.1
	c63.5-33,133.3-52.3,204.7-56.6V565c-38,2.8-81.7,7.6-116.3,22.8V587.3z M2446.8,914.2c-131.9,0-191.6-64.6-191.6-212.9
	c0-156.8,78.9-216.7,191.6-216.7c131.9,0,191.4,64.6,191.4,212.9C2638.1,854.3,2559.2,914.2,2446.8,914.2L2446.8,914.2z
	 M2446.8,558.8c-67.9,0-105.3,39-105.3,142.9c0,113.5,31.8,138.8,105.3,138.8c67.7,0,105.3-38.4,105.3-142.2
	c0-113.5-31.7-139.1-105.3-139.1V558.8z M3064.5,904.1h-103.8c-24.3-64.6-58.2-133.1-110.2-188.6h-46.4v188.6h-88.4V321.9h88.4
	v334.5h41.2c43.9-46.9,79.1-101.3,103.8-160.6h99.4c-33.8,68.4-77.4,128.9-126,178.3c55.6,71.5,103.3,148.8,142.2,230.6
	L3064.5,904.1z M3230.2,914.4c-80.2,0-110.2-49.4-110.2-117.1V495.7h87.4v313.1c0,22,16.2,31.7,35.4,31.7
	c46.1-0.8,91.6-10.6,134-28.7V495.7h88.4v355.1c-104.5,57.4-185,64.1-234.9,64.1L3230.2,914.4L3230.2,914.4z"/>
</svg>
