<svg id="katman_1" data-name="katman 1" xmlns="http://www.w3.org/2000/svg" viewBox="0 0 2897.71 1119.54"><defs><style>.cls-1{fill:#599636;}.cls-2{fill:#6cac48;}.cls-3{fill:#c2bfbf;}.cls-4{fill:#47474a;}</style></defs><path class="cls-1" d="M374.26,48.76l29.85,56.14a167.72,167.72,0,0,0,22.56,28c25,25,48.8,51.21,70.1,79.27,50.6,66.46,84.75,140.26,109.15,220.16a542.24,542.24,0,0,1,23.17,149.41c2.46,151.23-49.4,281.11-154.28,389.06a446.59,446.59,0,0,1-54.88,47c-10.4,0-15.25-8.22-19.52-15.26-8.22-13.69-12.82-28.67-15.25-43.89-3.67-18.29-6.11-36.58-4.88-55.51V894.6c-.6-1.83-9.75-841.54-6.1-845.81Z" transform="translate(-126.24 -45.75)"/><path class="cls-2" d="M374.26,47c-1.23-2.47-2.47-.61-3.67.6.6,12.19-3.67,23.17-10.41,33.54-7.31,10.41-17.08,18.3-26.83,26.84-54.28,47-96.94,103.67-131.11,167.09-45.13,85.38-68.9,176.84-75.58,273.2-3,34.78,11,157.35,22,192.7C178.47,834.85,232.14,913.5,302,981.79a665.59,665.59,0,0,0,54.27,46.33c5.48,0,6.11-4.87,7.31-8.54a168.54,168.54,0,0,0,5.48-23.8c5.47-30.48,8.54-61,12.18-91.46L374.5,47Z" transform="translate(-126.24 -45.75)"/><path class="cls-3" d="M404.19,1055c1.23-14,8.21-25.6,15.25-37.18-7.31-3-12.81-9.15-17.09-15.88-3.67-6.11-6.71-13.7-9.14-20.13-8.55-25.6-10.41-52.44-12.82-78.67V887.23c-3,2.47-3.67,23.17-3.67,26.24a608.64,608.64,0,0,1-11,82.31c-1.84,11-3,22-9.75,31.71a12,12,0,0,0,.6,4.27c11,32.31,14,65.26,15.89,98.8v12.19c0,14.62-.61,11.58,11.58,16.43,4.87,1.83,10.4,2.46,15.25,6.1,3.67,0,4.27-3,4.27-5.47l-1.83-20.13v-56.14c-.6-9.74,1.23-19.52,2.46-28.67Z" transform="translate(-126.24 -45.75)"/><path class="cls-4" d="M867.26,800V858a39.6,39.6,0,0,0,.39,6.88c.75,6.88,5,11.07,11.18,13a137.1,137.1,0,0,0,17.62,3.44c3.44.39,4.58,1.9,5,5.6.39,13-.76,14.54-13.37,13.75-29.42-1.54-58.86-1.9-88.27,0H797c-9.17.39-9.93-.39-9.93-9.56,0-1.54.39-3.44.39-5,0-2.79,1.91-4.19,4.59-4.19,6.15-.76,11.86-2.29,17.62-3.44,8-1.9,12.58-6.88,13.36-14.9,1.12-8.78,1.12-18,1.12-26.76l.39-102.4a15.65,15.65,0,0,0-8.39-14.54,108.22,108.22,0,0,0-21.81-9.17c-2.29-.76-4.58-1.12-6.48-2.29-5.6-2.69-5.74-7.64-.4-10.71a19.77,19.77,0,0,1,6.49-2.3,347.08,347.08,0,0,0,68-17.19c4.59-1.54,5.74-1.12,6.16,3.44a32.48,32.48,0,0,1-.4,8.78A96.76,96.76,0,0,0,867,705c0,1.9.39,3.83,2.29,5s3.83,0,5.59-1.11a207.11,207.11,0,0,1,24.83-16.78c12.59-6.88,26-13,40.55-14.9,17.61-2.3,32.85,2.29,46.25,13.75A87.2,87.2,0,0,1,1001,707.76c3.83,5.59,4.19,5.73,9.17,1.9,14.54-10.71,29.81-20.24,46.25-27.12,17.2-7.27,34.78-8.39,52.34-2.3,18,6.49,30.2,19.1,37.47,36.3a103.09,103.09,0,0,1,8.78,42.78V861.71c0,6.88,2.8,11.19,9.56,14.54,7.27,2.8,15.3,4.2,22.93,5.74,5,1.11,5,1.11,5,6.15-.76,12.58-1.9,13.36-14.15,12.58a822.23,822.23,0,0,0-92.08,0c-6.15.39-6.15.39-6.48-5.73v-1.9c-.39-10.35-.39-10.35,9.56-12.59l9.93-2.68a15.37,15.37,0,0,0,11.85-14.9l1.12-28.66-.75-74.89a59.77,59.77,0,0,0-4.2-19.48c-9.56-23.32-30.56-31.71-50.83-29.42-15.3,1.54-28.66,7.63-41.27,16.44-2.69,1.9-4.59,4.2-4.2,8,3.44,24.46,1.12,48.93,1.54,73.37v53.12c0,9.57,3.83,14.15,13,16.45l17.62,3.83c2.68.39,4.19,1.53,4.19,4.58v2.8c-.39,10.71-1.12,11.18-11.85,11.07-30.57-1.54-61.16-1.12-91.33,0-10.34.39-11.18-.75-10.71-11.18.4-6.15,1.12-6.49,6.88-7.64l12.59-2.29c11.18-2.29,15.29-6.49,16-18.34L970,835.09l-.75-76.81c-.76-9.56-2.8-18.73-8-27.51-7.63-14.15-19.57-21.39-35.93-22.17-16.44-1.12-31,5-44.74,12.58-9.56,5.59-13.75,12.22-13,23.32v55.78Zm719.92,2.32v53.88c.06,3.83.32,7.66.76,11.46a11.72,11.72,0,0,0,9.17,10.71,88.49,88.49,0,0,0,20.24,3.44c3.83.39,4.59,1.9,5,5v2.68c-.39,13.37-1.9,14.91-14.9,14.15-29.08-1.9-58.08-1.53-87.13,0l-11.19.39c-2.29,0-2.79-1.11-3.44-2.68a39.1,39.1,0,0,1,0-16c.4-2.29,1.91-2.8,4.2-3.44,5.59-.75,10.34-1.9,15.66-2.8,9.56-2.29,13-6.15,13.36-16l1.12-32.1v-94c0-6.88-2.68-11.07-8.78-14.15-6.88-3.83-14.15-6.49-21.81-9.17a32.61,32.61,0,0,1-6.49-2.69c-5-3.44-5.59-8.38-.75-12.22a13.72,13.72,0,0,1,7.63-3.07c24.47-3.83,48.15-9.17,71.08-18.34,2.69-1.12,3.83-.4,5,1.9a12.71,12.71,0,0,1,1.12,7.63l-1.12,17.95c0,2.3-1.12,5.59.75,6.49,2.3,1.54,3.83-1.9,5.74-2.8a170.43,170.43,0,0,1,37.07-23.68c11.86-5.59,24-9.17,37.83-8.39,25.62,1.54,44,14.54,55.79,37.08,6.15,11.85,8.78,24.83,9.92,38.22l1.12,28,.39,84.45c.4,6.48,2.69,10.71,9.18,13a124.78,124.78,0,0,0,20.63,5c6.15.75,6.49,1.9,6.88,7.63v1.9c-.76,13-1.54,13.37-14.54,12.58a803.82,803.82,0,0,0-85.59,0c-3.83.4-7.63,0-11.19.4-2.29,0-3.83-.4-4.19-2.69-.75-5-1.54-9.92-.39-15.29.39-2.3,1.54-3.44,4.19-3.83l17.62-2.8c6.15-1.54,9.56-5.59,10.34-11.19l.76-10.7-.39-79.86c0-9.17-.39-18.35-2.29-27.52-4.59-19.57-19.49-33.55-39.71-35.51-17.62-1.9-33.55,2.69-48.15,12.22-7.27,4.59-10.35,11.07-10.35,19.1v57.71c0-1.12,0-1.12.4-1.12Z" transform="translate(-126.24 -45.75)"/><path class="cls-3" d="M2706.37,694.11c-4.19-27.9-14.54-52.73-32.49-74.51A147.34,147.34,0,0,0,2615,576c-24.05-9.92-49.69-13-75.66-13.76-10.71-.39-156.67,1.91-167.38,0a5.71,5.71,0,0,0-6.15,2.69,43.65,43.65,0,0,0-5,8.78c-4.59,10.34-4.59,9.56,6.49,11.07,9.17,1.54,17.95,2.29,26.76,5,8,2.68,13.75,7.27,15.65,16.05.76,4.19,1.54,138.69,1.54,201.38L2409.75,852a41.72,41.72,0,0,1-1.9,9.92c-1.53,4.59-4.19,8.39-8.78,10.35a45.34,45.34,0,0,1-16.05,4.19c-10.34,1.12-11.85,1.54-15.29,13l-1.12,4.2c-.76,5-.39,5.73,4.59,5.73l114.25,1.12,44.73-.76,31-3.83c35.15-6.48,66.49-21,93.22-44.32a155.06,155.06,0,0,0,36.69-48.15c10.71-21.39,15.29-44.73,16.44-68.39,1.9-13.36,1.12-27.12-1.12-40.88ZM2651,748.36c-1.54,24.46-6.49,48.15-19.1,69.54-16,27.9-39,47.39-70.68,54.24-13.76,2.8-27.52,4.2-42,2.3-10.34-1.12-20.24-2.3-29.8-5.74-17.2-6.15-23.32-16.77-23.69-33.55l-.39-230.4c0-13.76,6.15-16.78,16-17.2a258.38,258.38,0,0,1,45.1.76,169.4,169.4,0,0,1,46.25,11.18,111.15,111.15,0,0,1,30.2,18.74c20.64,17.61,34.39,39.7,41.94,65.7,6.15,21,7.27,42.42,6.15,63.81Zm373,37.47a36.21,36.21,0,0,0-.39-6.49c-3.44-21-14.54-37.08-31.71-49.3-11.08-8-23.69-13.36-36.69-17.19a39.49,39.49,0,0,0-6.49-1.9,3.28,3.28,0,0,1,2.69-2.69c7.63-3.83,14.9-8,21.39-13.76a71.74,71.74,0,0,0,23.68-37.07c2.3-8,2.3-16,1.54-24.47a65.72,65.72,0,0,0-27.9-49.69c-17.62-13-38.23-18.34-59.62-18.73-41.27-.76-82.9,0-124.15,0-11.85,0-23.68.75-35.93-1.12-2.29-.39-5.59-1.12-7.27,1.54-2.79,5-6.15,9.92-7.27,15.66-.39,2.68.39,4.19,3.44,4.58l26.37,3.83c10.34,1.54,17.61,7.27,18.34,16.44a162.61,162.61,0,0,1,1.12,19.1l-.76,71.44L2784,837.39a134.33,134.33,0,0,1-2.68,24.83,14,14,0,0,1-9.93,11.46c-7.63,2.29-14.9,4.59-22.93,4.59a9.5,9.5,0,0,0-9.92,6.48,49.37,49.37,0,0,0-3.44,10.71c-.76,4.59.39,6.16,5,5.6,3.43-.4,129.54,2.68,153.22.39,14.15-1.54,28-3.44,42-7.64,24.05-7.63,46.25-18.73,63.81-37.46,14.54-15.3,22.93-33.64,23.68-55,1.12-5,1.12-9.93,1.12-15.3ZM2838.63,629.24l1.12-30.56c0-5.73,2.29-8.39,8-9.56,9.17-1.9,18.34-1.12,27.52-.76a132.87,132.87,0,0,1,27.12,4.59c16.78,5,29.81,14.54,37.47,30.56a54.9,54.9,0,0,1,5.34,23.32c.39,10.71-.39,21-4.59,31.32-6.48,14.15-16.77,23.32-31.71,26s-57.32,1.54-63.8,1.54c-5.74,0-6.16-.76-6.16-6.49v-36a246.86,246.86,0,0,1-.39-33.64Zm124.15,205.58c-6.49,17.19-18.34,29.08-35.15,35.51-9.17,3.44-18.34,5.59-28,5-11.86-.39-23.68,0-35.51-2.29-16-3.44-23.32-18.73-24.47-29.81-1.9-19.49-.75-39.37-1.12-53.88V738.88c0-6.15.76-8,7.27-8l35.93.4,24.47,2.79c17.2,3.83,32.85,10.35,45.1,23.69a61.87,61.87,0,0,1,16.44,37.83c1.12,13.36.39,26.36-4.58,39Z" transform="translate(-126.24 -45.75)"/><path class="cls-4" d="M1991.87,719.7l9.93,1.54c10.71.39,23.32-3.44,27.12-18.35a38.54,38.54,0,0,0,0-21.81c-2.29,0-3.44,1.9-4.59,2.69a36.71,36.71,0,0,1-19.09,8c-13.76,1.54-27.52.76-40.88-4.19l-18.74-6.49a110.37,110.37,0,0,0-40.54-5.31c-19.49,1.54-37.83,8-55,17.19-18.34,9.93-31.32,24.83-37.47,45.11-3.44,11.85-3.83,24-2.29,36.29,3.83,27.91,18.34,47.4,44.32,57.71,1.53.39,2.68,1.12,4.19,1.54,3.44,1.9,3.83,3.83.76,6.49l-9.57,6.48-22.93,14.15c-5.73,3.44-6.48,6.16-4.58,12.22a40,40,0,0,0,12.22,18.35,63.74,63.74,0,0,0,17.59,10.7c4.19,1.91,4.19,2.8.39,6.16l-21.81,15.65c-7.27,5.6-14.54,11.19-20.64,18.35a37.73,37.73,0,0,0-9.17,34.39,64.6,64.6,0,0,0,19.85,34.39,81.1,81.1,0,0,0,35.15,19.1c21.39,6.15,43.56,6.49,65.35,2.29,31.31-5.73,58.72-19.57,80.25-43.17,14.9-15.66,23.68-34,24.46-55.92a53.69,53.69,0,0,0-41.27-55.79l-20.63-3.83-63.06-5.59c-6.88-.39-13.75-1.54-19.49-5-7.27-4.58-9.17-13.36-4.58-19.09,3.44-4.2,7.63-6.88,13-7.27l12.22-1.12a110.75,110.75,0,0,0,64.56-29.42,67.61,67.61,0,0,0,19.49-32.49,101.83,101.83,0,0,0,.76-50.33c-1.12-4.19-.76-4.59,4.58-3.83ZM1898.2,910c2.29.39,4.58,0,6.88,0,16.05.76,32.49,1.9,48.15,6.15a99.63,99.63,0,0,1,14.9,5.74c15.29,8.38,21,22.92,19.1,38.58-2.3,17.2-11.86,29.42-26.76,37.47-9.93,5.59-21,8-32.49,9.17-4.2.39-8,0-12.22,0-13.37.39-26.37-1.12-39-6.48a60.29,60.29,0,0,1-22.54-15.3c-13.36-13.37-19.57-37.83.39-57.71C1866.85,916.46,1880.64,908.55,1898.2,910Zm43.56-119.23c-8,20.25-25.61,26.37-43.17,23.69-16-2.3-27.91-11.08-35.51-25.62-9.93-19.48-12.58-39.7-6.88-60.76,4.19-15.65,13.76-27.51,30.56-30.19,21.39-3.84,41.94,3.83,52.74,25.22,5.59,10.34,8,22.93,8,40.88a86.59,86.59,0,0,1-5.73,26.76Zm-481.44-26c-3.44-20.64-11.07-39.37-25.22-55-21-23.32-47.76-33.55-78-33.64-26.37-.39-51.17,7.27-73.37,21a99.57,99.57,0,0,0-44.71,58.47c-6.49,22.17-6.15,44.74-1.12,67.25,13.37,60.39,60,86.34,115.76,82.54,16.44-1.12,32.1-6.49,47-13.76,22.17-10.34,38.22-26.76,49.29-48.54,8.78-18,12.59-37.08,12.22-58.86l-1.9-19.49Zm-54.24,84.83a46.42,46.42,0,0,1-39.37,32.1c-16.78,2.3-32.5-1.9-46.62-11.85A79.52,79.52,0,0,1,1296,841.22c-15.66-32.1-18.34-65.71-10.35-100.1a57.41,57.41,0,0,1,16-27.91c14.15-13,30.56-16.05,48.94-12.22,17.61,3.83,30.95,13.37,41.94,27.91s16.05,31.31,19.1,48.93c1.53,8.78,1.53,17.95,1.9,23.68,0,18.35-1.54,33.56-7.27,48.15Zm889.17-81.75c-2.79-22.18-11.07-42.42-26.76-59.23-20.63-22.53-47.39-32.1-77.17-32.49-25.61-.39-49.3,6.88-71.08,19.49-24.47,14.54-41.27,35.15-47.76,63.05a133.41,133.41,0,0,0,9.17,90.93c12.59,26.76,34,44,62.3,51.59,31.32,8.39,61.15,4.59,90.18-9.56,25.22-12.22,43.17-31.32,53.49-57.32,6.15-15.29,8.39-31.71,8.78-50.83.39-3.44-.39-9.57-1.12-15.66Zm-52.73,76.81c-6.15,20.63-19.1,34-40.88,37.07-16,2.3-31.32-1.54-45.1-10.71-11.86-8-20.25-18.73-26.37-31.31a117.67,117.67,0,0,1-12.22-42c-2.29-18-2.29-35.51,1.9-53.49a54.37,54.37,0,0,1,3.44-10.32c10.71-26.76,34.39-39,62.3-32.85,18.73,4.19,32.85,14.54,43.56,30.2,10.35,15.29,15.3,32.1,17.62,50.33a103,103,0,0,1,1.12,21.39c0,14.9-1.12,28.66-5.6,42Z" transform="translate(-126.24 -45.75)"/></svg>