<svg id="katman_1" data-name="katman 1" xmlns="http://www.w3.org/2000/svg" viewBox="0 0 3581.62 1231.66"><defs><style>.cls-1,.cls-7{fill:#1dcc00;}.cls-2{fill:#106d01;}.cls-3{fill:#18a001;}.cls-4{fill:#fefefe;}.cls-5{fill:#dcdcdc;}.cls-6{fill:#fdfefd;}.cls-7{font-size:300px;font-family:Arial-BoldMT, Arial;font-weight:700;}.cls-8{letter-spacing:-0.04em;}</style></defs><path class="cls-1" d="M236.47,984.37a467.29,467.29,0,0,1-62.2-75.9,492.47,492.47,0,0,1-73.4-177.6,480.58,480.58,0,0,1-9-119.6c5.6-110.3,43-208.7,113.5-293.8,68.4-82.7,155-137.4,258.8-164.8a478.2,478.2,0,0,1,79.9-13.6,491.8,491.8,0,0,1,82.3-.6q134.4,10.8,245.4,87.5a450.74,450.74,0,0,1,68.9,58.2c-.4,2.1-2.1,3.3-3.5,4.7Q883.62,342.42,830,396.07c-1.6,1.6-3.1,3.6-5.6,4a7.57,7.57,0,0,1-1.5-.1c-7.9-4.6-15.2-10.2-23-15-26.2-16.3-54.2-28.6-83.4-38.1a407.93,407.93,0,0,0-78-16.9,290.63,290.63,0,0,0-32.3-2.4c-10.8-.1-21.5-.5-32.4-.2a420.73,420.73,0,0,0-108.6,17.7,360.71,360.71,0,0,0-57.7,22.4c-26,13-50.5,28.4-72.7,47.3-25.2,21.5-46.6,46.1-63.3,74.8-17,29.2-28,60.5-31.4,94.1-6.4,62.7,9.5,119.5,46.6,170.4a286,286,0,0,0,29.3,34.7,320.23,320.23,0,0,0,58.4,45.9,46.07,46.07,0,0,1,5.4,3.6,4.31,4.31,0,0,1,1.3,1.9c.2,2.3-1.5,3.6-2.9,5-28.7,28.7-57.1,57.8-86.3,86-16.9,16.3-33.3,33.1-50.1,49.4C240.07,981.87,238.87,983.87,236.47,984.37Z"/><path class="cls-2" d="M1083.37,653.27c.2,11.9-1.5,23.7-2.6,35.6a451.92,451.92,0,0,1-8.1,50.4,482.82,482.82,0,0,1-27.1,86.3,493.35,493.35,0,0,1-48.5,88.8,506.24,506.24,0,0,1-48.9,60.4,494.59,494.59,0,0,1-272.4,147.3c-13.6,2.5-27.5,4-41.3,5.5-24.9,2.8-49.8,2-74.7,1.6a289.27,289.27,0,0,1-44.4-4.5c-5.3-1-10.8-1-15.9-3-4.2-5.9-6.3-12.8-9.1-19.4q-45.6-108.45-91.2-216.9c-4.9-11.7-9.9-23.3-14.7-35a17.06,17.06,0,0,1-1.3-3.8c-.2-1-.6-2.1.2-2.9,1.1-1.1,2.2-.2,3.1.4a5.92,5.92,0,0,0,4.2,1.2c3.1.2,5.7,1.9,8.3,3.3,37.4,19.6,77.2,32,118.7,38.8a265.09,265.09,0,0,0,30.7,3.7c13.1.6,19.4,7.4,19.4,20.5-.1,18.2-4.3,35.6-10.7,52.6-2.2,5.8-4.5,11.5-4.3,17.8.3,9,6.2,14.1,15.2,12.7a52.52,52.52,0,0,0,16-5.6Q625.52,967,665.17,942a1273.44,1273.44,0,0,0,110.3-78.5c18.1-14.4,35.5-29.7,52.9-45a417.27,417.27,0,0,0,60.4-65.6c22.9-31.2,39.3-65.4,45.7-103.8,3.4-20.6,4.5-41.2,2.2-62.1a246.51,246.51,0,0,0-16.3-65.2,263.29,263.29,0,0,0-30.9-55.3c-1.9-2.7-4.4-5-5.4-8.3,0-.8,0-1.7,1.2-1.8a3,3,0,0,1,2.2,1,25,25,0,0,1,2.9,2.7c62.3,63,126.1,124.5,188.4,187.4C1080.57,649.07,1082.47,650.77,1083.37,653.27Z"/><path class="cls-3" d="M1083.37,653.27c-5.9-5.8-11.9-11.6-17.8-17.5-24-24-47.7-48.4-72.1-71.9-35.7-34.4-70.2-70-105.6-104.7-.9-.8-1.3-3-3.4-1.9-2.1.3-2.8-1.5-3.8-2.7-6.4-7.2-12.5-14.7-19.3-21.5a378.3,378.3,0,0,0-33.1-28.9c-1.6-1.3-3.9-2.1-3.9-4.8,1.5-1.3,3.1-2.5,4.5-3.9q53.7-53.7,107.4-107.3c1.4-1.4,3-2.7,4.4-4a462,462,0,0,1,59.6,72.8,492.69,492.69,0,0,1,71,164.1,485.9,485.9,0,0,1,11.6,80.7C1083.77,619,1083.47,636.07,1083.37,653.27Z"/><path class="cls-3" d="M390.77,846.17c-3.3,2.5-4.4-1.7-7.5-2.6,4.3,10.4,8.3,20.1,12.4,29.9,9.3,22,18.6,44.1,27.8,66.1q18,42.75,35.9,85.4c10.7,25.6,21.5,51.1,32.1,76.7,2.7,6.6,6.2,12.9,8,19.8a454.49,454.49,0,0,1-88.8-24.4c-64.8-24.7-121.9-61.5-171.5-109.9-.9-.9-1.8-1.9-2.7-2.9,6.1-6.3,12.2-12.8,18.5-18.9,40.9-39.8,81.2-80.3,121.5-120.6,1.4-1.4,2.7-2.9,4.1-4.4C385.27,840.17,388.37,842.57,390.77,846.17Z"/><path class="cls-4" d="M379.67,839.27c-65.9-39.5-114.4-93.5-134.7-168.9-16.3-60.4-8.4-118.7,21.1-173.9a272.67,272.67,0,0,1,43.4-59.5c39.6-41.7,87.5-70,141.5-88.7a411.18,411.18,0,0,1,128.2-22.2c88.6-1.4,170.1,20.7,242.9,72.2a17.38,17.38,0,0,1,1.5,1.3c1.9,2.8-.5,4.3-2,5.9-6.8,7.3-14.5,13.7-21.6,20.7-36.3,36.1-72.3,72.3-108.6,108.4-1.8,1.8-3.3,5-6.9,3.8a4.47,4.47,0,0,1-1.2-2.7c-2.5-9.3-8.7-13.8-17.8-12.9-8,.8-14.1,7.5-14.4,16.4-.4,9.3-.1,18.6-.1,27.9,0,1.8,0,3.7-.1,5.5a6.35,6.35,0,0,1-.5,2.3c-5.9,7.9-13.8,13.8-21.1,20.3a2.12,2.12,0,0,1-1.9.4c-2.5-1.3-3.7-3.8-5.3-5.8-14.7-19.7-29.2-39.6-43.8-59.3-3.2-4.3-7-7.5-12.7-7.8-9.5-.6-14.6,3.1-18.3,13.4-.8,2.4-.5,5-.5,7.4,0,42.5-.1,85,.1,127.5a16.69,16.69,0,0,1-5.2,12.8c-22.4,22.1-44.2,44.9-67,66.6-29.4,28.1-57.6,57.4-86.6,85.8C385.87,838.27,383.77,841.47,379.67,839.27Z"/><path class="cls-5" d="M379.67,839.27c2.1.2,4-.1,5.4-1.9a11.41,11.41,0,0,1,1.1-1.1q77.7-77.1,155.3-154.2a12.61,12.61,0,0,0,4.2-10c-.2-43.5-.1-87-.1-130.5,0-2.1-.7-4.4.8-6.3,1.8,1.4,1.8,3.5,1.8,5.5,0,44.4.3,88.8-.1,133.2-.3,5.4.9,10.3,5.1,14,4.7,4.2,10.1,5.9,16.1,3.2,6.3-2.9,10.7-7.5,10.8-14.9q.3-18,0-36c-.1-13.2,0-26.3,0-39.5a19.63,19.63,0,0,1,.6-6.4c1-1.8,2-1.5,2.7.2s.6,3.6.6,5.4v31.4c0,1.6-.3,3.2.5,5.2,6.8-5.4,11.8-12.5,18.6-17.4,3.1-.2,4.1,2.5,5.5,4.4,14.6,19.6,28.9,39.4,43.4,59.1a25.63,25.63,0,0,0,8.8,7.9,15.6,15.6,0,0,0,22.6-11.1c2-12.2.6-24.6.8-36.8v-97.1c0-2.4-.6-5,1.3-7.2,1.5-1.3,3.1-2.5,4.5-3.9,36.8-36.7,73.4-73.6,110.4-110.2,6.7-6.7,13.8-13,20.5-19.7,1.4-1.4,3.1-2.7,2.7-5a2.2,2.2,0,0,1,.8-.1c12.3,10.1,24.8,20,36.1,31.3,8.5,8.5,16.2,17.6,24,26.6,12.8,17.2,24.5,35.2,33.2,54.9,12,27.1,19.3,55.3,21,85.1,3.6,64-18.7,118.8-57.8,168.1-24.5,30.8-53.7,56.8-83.8,81.9A1224.73,1224.73,0,0,1,588.87,988c-5.4,2.9-10.9,5.8-16.9,7.4-14.5,3.8-23.6-4.8-20-19.4,1.8-7.2,4.9-14.1,7.1-21.2,4.4-14.2,7.5-28.6,7.5-43.5,0-11.6-5.2-17.5-16.5-18.4-55.8-4.7-108.5-19.7-157.9-46.1a5.73,5.73,0,0,0-1.4-.4,56.24,56.24,0,0,0-10.1-5.8C380.27,840.07,380,839.67,379.67,839.27Z"/><path class="cls-1" d="M361.37,606.47c0-22.8-.1-45.6.1-68.5a17.17,17.17,0,0,1,17.7-17.1,17.52,17.52,0,0,1,17.5,17.5c.1,7.3,0,14.6,0,22,0,31.1.1,62.3-.1,93.4,0,3.6.7,4.7,4.6,4.7,15.3-.3,30.6-.2,46-.1,14.4.1,23.1,14,16.3,26-3.3,5.8-8.4,9.4-15.4,9.5q-34.5.15-69,0c-10.5-.1-17.6-7.9-17.6-18.9-.1-22.9,0-45.7-.1-68.5Z"/><path class="cls-3" d="M685.17,644.07c.1,10.3.5,20.7.3,31-.2,9.2-5.3,16-12.9,18.2-7.4,2.2-15.1-1-20.7-8.6-13.6-18.5-27.1-37-40.7-55.5-2.4-3.3-5-6.6-7.5-9.8a1.7,1.7,0,0,1-.2-1.4c6.1-7.4,13.4-13.8,20.1-20.6a4.7,4.7,0,0,1,5-1.4c5.7,4,8.5,10.6,12.9,15.7,2.2,2.6,4.1,5.6,6.9,9.2v-37.8c0-2.7-.2-5.3,1.2-7.8a15.52,15.52,0,0,1,.4-2.1,13.89,13.89,0,0,1,3.6-5.3c8.5-8.4,16.9-16.9,25.4-25.4l1.4-1.4c1.1-1,2.4-2.4,3.9-1.8,1.7.7.9,2.6.9,4v95.3A33.66,33.66,0,0,0,685.17,644.07Z"/><path class="cls-1" d="M627.87,596.07c-2.2.2-3.4,1.9-4.8,3.2-6.6,6.3-12.5,13.2-19.5,19-3.3-.6-4.5-3.6-6.2-5.9-4.2-5.7-8.4-11.5-12.6-17.3-.7-.9-1-2.7-2.9-1.8l-.3,48a18.05,18.05,0,0,1-2.4,3.7c-9.5,9.5-18.9,19-28.5,28.4-1,1-2,2.3-3.8,1.9-.1-22.4-.1-44.9-.2-67.3-.1-24.3-.1-48.5-.2-72.8,1.8-7.4,6.2-12.5,13.9-14,8.3-1.6,14.4,1.9,19.3,8.5,16,21.8,32.2,43.6,48.3,65.4a.73.73,0,0,1,.2.6C628,596,628,596.07,627.87,596.07Z"/><path class="cls-1" d="M518.67,607.27v67.5c0,11.1-7.2,18.9-17.4,18.9-10,0-17.6-8-17.6-18.9q-.15-67.8-.1-135.5c0-10.5,7.6-18.2,17.7-18.2,10.3,0,17.4,7.4,17.4,18.2Z"/><path class="cls-1" d="M685.17,644.07c-1-1.7-.5-3.6-.5-5.4v-99.8c-12.2,12-23.5,23.1-34.8,34.3-.1-11-.2-22-.2-33,0-10.5,6.5-18.3,15.7-19.1,11-.9,17.9,4.8,19.7,16.2,0,.3.3.6.5.9,0,30-.1,59.9-.1,89.9C685.37,633.47,685.17,638.77,685.17,644.07Z"/><path class="cls-5" d="M627.87,596.07a1.39,1.39,0,0,1,0-.9c7.2-6.6,14.4-13.3,21.6-19.9v49.2C641.77,614.37,634.87,605.27,627.87,596.07Z"/><path class="cls-3" d="M710.57,606.77v-65.5c0-13.4,6.8-20.2,20.2-20.3,21.3-.1,42.7-.1,64-.1,11.9,0,18.6,5.1,20,15.1,1.6,11.4-6.5,20.2-18.8,20.3-15.2.1-30.3.1-45.5-.1-3.6,0-4.7.5-4.5,4.6.6,8.1.3,16.3.1,24.5-.1,3.4,1,4.2,4.2,4.2,14.7-.2,29.3-.1,44,0,5,0,10,.8,14,4.1,6.4,5.2,8.5,12.5,5.9,20-2.3,6.7-9.4,11.5-17.6,11.6-15,.1-30,.1-45-.1-4.1-.1-5.7.5-5.4,5.2a176.45,176.45,0,0,1,.1,23c-.3,4.7,1.5,5.4,5.6,5.3,14.7-.2,29.3-.1,44-.1,10.9,0,19.2,7.6,19.4,17.8s-8.2,18-19.2,18h-65c-13.1,0-20.5-7.4-20.5-20.3Z"/><path class="cls-3" d="M546.67,675.27l30.3-30c1.4-1.4,2.9-2.7,4.4-4,.1,11.9.4,23.9.1,35.8-.2,9.2-9.2,17.1-18.3,16.7C553.27,693.47,546.17,685.47,546.67,675.27Z"/><path class="cls-6" d="M581.77,593.27c.4-4.1,1.8-1.7,2.7-.3l16.2,21.9c.9,1.2,1.9,2.3,2.8,3.4a3.75,3.75,0,0,0,.1,1c-6,6.2-12,12.3-18,18.5a37.06,37.06,0,0,1-3,2.6v-42.3C582.47,596.47,583,594.67,581.77,593.27Z"/><text class="cls-7" transform="translate(1257.93 705.53)">Messaging<tspan class="cls-8" x="1550.39" y="0"> </tspan><tspan x="1622.61" y="0">API</tspan></text></svg>