<svg xmlns="http://www.w3.org/2000/svg" viewBox="0 0 6271.87 2790.56"><defs><style>.cls-1{fill:#fff;}.cls-2,.cls-3{fill:#53c1de;}.cls-3{font-size:1000px;font-family:ArialMT, Arial;letter-spacing:0.05em;}</style></defs><g id="BG"><circle class="cls-1" cx="1407.25" cy="1392.85" r="1301.81"/></g><g id="圖層_1" data-name="圖層 1"><path class="cls-1" d="M224.47,1391.94c0,187.64,183.23,362.8,472.08,461.54-57.68,290.38-10.33,524.45,147.81,615.64,162.54,93.75,404.7,28.86,634.54-172.06,224,192.8,450.47,268.68,608.47,177.22,162.4-94,211.78-343.94,152.51-643.4,300.86-99.47,469.16-248.83,469.16-438.94,0-183.28-183.56-341.84-468.53-439.94,63.82-311.83,9.75-540.21-154.94-635.18-158.78-91.56-387.84-11.76-615.17,186.09-236.52-210-463.32-274.1-627.83-178.87-158.63,91.82-203.89,330.14-146,625.9C417.44,1047.25,224.47,1209.4,224.47,1391.94Z"/><path class="cls-2" d="M2180.16,1049.42q-35.23-12.09-71-22.38,5.94-24.12,11-48.45c53.77-261,18.62-471.27-101.44-540.49-115.1-66.38-303.35,2.84-493.48,168.29q-28.11,24.51-54.94,50.42-18-17.22-36.56-33.77c-199.26-176.93-399-251.48-518.92-182-115,66.56-149,264.24-100.65,511.6q7.23,36.74,16.31,73.08c-28.26,8-55.55,16.58-81.66,25.68C515.15,1132.79,366,1260.44,366,1392.84c0,136.75,160.15,273.91,403.48,357.08Q799,1760,829.1,1768.57q-9.76,39.14-17.33,78.77c-46.15,243.06-10.11,436.05,104.59,502.21,118.46,68.31,317.28-1.91,510.88-171.14q23-20.07,46-42.44,29.06,28,59.64,54.43c187.53,161.37,372.74,226.53,487.33,160.19,118.36-68.51,156.81-275.83,106.88-528.08q-5.71-28.9-13.24-59,21-6.18,41-12.81c252.95-83.81,417.53-219.3,417.53-357.88,0-132.87-154-261.39-392.31-343.42Z"/><path class="cls-1" d="M2125.29,1661.25q-18.09,6-37.06,11.59c-27.93-88.41-65.62-182.42-111.73-279.53,44-94.82,80.24-187.62,107.39-275.46,22.56,6.54,44.48,13.43,65.59,20.7,204.19,70.28,328.73,174.22,328.73,254.29,0,85.3-134.51,196-352.91,268.41Zm-90.62,179.57c22.08,111.54,25.23,212.38,10.6,291.22-13.14,70.83-39.57,118.06-72.24,137-69.54,40.26-218.25-12.07-378.62-150.07q-27.57-23.73-55.48-50.58c62.17-68,124.31-147.07,185-234.85,106.68-9.47,207.45-24.94,298.85-46.07q6.74,27.25,11.94,53.38ZM1118.2,2262.06c-67.93,24-122,24.68-154.75,5.82-69.6-40.13-98.53-195.11-59.07-403q7.05-36.84,16.12-73.26c90.37,20,190.42,34.37,297.35,43,61,85.9,125,164.86,189.4,234q-20.54,19.88-42,38.71c-85.61,74.84-171.39,127.92-247,154.63ZM799.93,1660.72c-107.6-36.78-196.45-84.57-257.36-136.71-54.72-46.88-82.36-93.41-82.36-131.17,0-80.34,119.79-182.82,319.58-252.48q37.62-13,75.94-23.9c27.62,89.82,63.84,183.72,107.55,278.67-44.28,96.38-81,191.77-108.88,282.64Q827,1669.91,799.93,1660.72ZM906.62,934.48C865.15,722.55,892.69,562.68,962,522.56c73.82-42.73,237,18.21,409.09,171q16.5,14.65,33.11,30.57c-64.1,68.83-127.45,147.2-188,232.61-103.78,9.61-203.12,25.06-294.44,45.76q-8.44-33.8-15.17-68Zm951.79,235q-32.36-55.89-67.1-110.35c70.41,8.89,137.86,20.71,201.19,35.17-19,60.94-42.71,124.67-70.62,190q-30.59-58-63.47-114.82Zm-388.14-378c43.47,47.1,87,99.69,129.85,156.75q-130.32-6.16-260.79-.06c42.87-56.53,86.78-109,130.94-156.69Zm-390.63,378.69q-32.48,56.33-62.28,114.11c-27.45-65.1-50.94-129.11-70.12-190.93,63-14.09,130.1-25.6,200-34.34Q1112.17,1113.76,1079.64,1170.14Zm69.66,563.29c-72.27-8.06-140.42-19-203.36-32.69,19.49-62.91,43.49-128.3,71.53-194.8q29.92,57.81,62.55,114.18Q1113.31,1677.59,1149.3,1733.43Zm323.58,267.46c-44.68-48.21-89.24-101.53-132.76-158.88q63.36,2.49,129.09,2.5,67.47,0,133.2-3C1559.44,1900,1516.06,1953.34,1472.88,2000.89Zm449.9-498.34c29.49,67.23,54.35,132.26,74.1,194.11-64,14.59-133.05,26.35-205.83,35.08q35-55.46,67.74-112.28,33.29-57.74,64-116.91Zm-145.65,69.82q-50.13,87.11-105.85,170.8c-65.47,4.67-133.12,7.09-202.07,7.09-68.66,0-135.45-2.14-199.77-6.31q-57.14-83.46-107.84-171.06-50.43-87.08-94.14-177.78,43.57-90.67,93.86-177.89v0q50.23-87.16,107-170.32c65.63-5,132.91-7.56,200.92-7.56,68.32,0,135.69,2.62,201.29,7.62q56.15,83,106.32,169.74,50.43,87,95.12,177-44.21,91-94.81,178.6ZM1971.59,519.76c73.88,42.62,102.62,214.46,56.19,439.81q-4.56,22-9.92,43.86c-91.54-21.12-190.95-36.84-295-46.61C1662.2,870.49,1599.38,792,1536.32,724q24.79-23.89,50.74-46.54c162.9-141.77,315.15-197.75,384.53-157.74Z"/><path class="cls-2" d="M1469.21,1195.81c108.83,0,197,88.22,197,197s-88.21,197-197,197-197-88.22-197-197,88.22-197,197-197"/><text class="cls-3" transform="translate(2997.91 1731.74)">React</text></g></svg>